<svg width="30" height="30" viewBox="0 0 30 30" fill="none" xmlns="http://www.w3.org/2000/svg">
<circle cx="15" cy="15" r="15" fill="#F25822"/>
<path d="M18.3333 9.33435C18.3333 9.24594 18.2982 9.16116 18.2357 9.09864C18.1732 9.03613 18.0884 9.00101 18 9.00101H16.3333C15.4941 8.95921 14.6724 9.25127 14.0478 9.8134C13.4232 10.3755 13.0465 11.162 13 12.001V13.801H11.3333C11.2449 13.801 11.1601 13.8361 11.0976 13.8986C11.0351 13.9612 11 14.0459 11 14.1343V15.8677C11 15.9561 11.0351 16.0409 11.0976 16.1034C11.1601 16.1659 11.2449 16.201 11.3333 16.201H13V20.6677C13 20.7561 13.0351 20.8409 13.0976 20.9034C13.1601 20.9659 13.2449 21.001 13.3333 21.001H15.3333C15.4217 21.001 15.5065 20.9659 15.569 20.9034C15.6315 20.8409 15.6667 20.7561 15.6667 20.6677V16.201H17.4133C17.4875 16.2021 17.5598 16.1784 17.619 16.1337C17.6781 16.0891 17.7207 16.0259 17.74 15.9543L18.22 14.221C18.2333 14.1718 18.235 14.1201 18.2252 14.0701C18.2154 14.02 18.1942 13.9729 18.1633 13.9323C18.1324 13.8918 18.0926 13.8588 18.0469 13.8361C18.0013 13.8133 17.951 13.8013 17.9 13.801H15.6667V12.001C15.6832 11.836 15.7607 11.6831 15.884 11.5721C16.0073 11.4612 16.1675 11.4002 16.3333 11.401H18C18.0884 11.401 18.1732 11.3659 18.2357 11.3034C18.2982 11.2409 18.3333 11.1561 18.3333 11.0677V9.33435Z" fill="white"/>
</svg>
