<svg width="16" height="16" viewBox="0 0 16 16" fill="none" xmlns="http://www.w3.org/2000/svg">
<path d="M11.6666 9.33346C11.4714 10.0124 11.0846 10.6207 10.5525 11.0854C10.0204 11.5501 9.36564 11.8515 8.6666 11.9535C8.11995 12.0328 7.56292 12.0008 7.02893 11.8595C6.49494 11.7182 5.99502 11.4704 5.55918 11.131C5.12333 10.7917 4.76054 10.3678 4.4926 9.88476C4.22466 9.40173 4.05708 8.86954 3.99993 8.32013C3.95566 7.76857 4.02631 7.21382 4.20741 6.69096C4.38851 6.16809 4.67613 5.68849 5.05207 5.28248C5.42801 4.87646 5.8841 4.55286 6.39151 4.33213C6.89892 4.11141 7.4466 3.99836 7.99993 4.00013C8.51843 4.00086 9.03204 4.10041 9.51327 4.29346C9.58904 4.32748 9.67479 4.33198 9.75371 4.30609C9.83263 4.28019 9.89904 4.22576 9.93993 4.15346L10.8999 2.3868C10.9206 2.3461 10.933 2.30173 10.9365 2.25623C10.94 2.21072 10.9344 2.16498 10.9202 2.12162C10.9059 2.07826 10.8833 2.03814 10.8535 2.00357C10.8237 1.96899 10.7874 1.94064 10.7466 1.92013C9.71575 1.4534 8.58305 1.25676 7.4552 1.34871C6.32736 1.44066 5.24148 1.81818 4.29983 2.44572C3.35819 3.07326 2.59178 3.93016 2.07279 4.93572C1.55379 5.94127 1.2993 7.06238 1.33327 8.19346C1.39896 9.87339 2.08952 11.4683 3.26965 12.6657C4.44979 13.8631 6.03447 14.5767 7.71327 14.6668C9.47188 14.7448 11.19 14.124 12.4926 12.94C13.7953 11.756 14.5768 10.1048 14.6666 8.3468V7.01346C14.6649 6.92559 14.6292 6.84179 14.5671 6.77965C14.5049 6.7175 14.4211 6.68184 14.3333 6.68013H8.33327C8.24486 6.68013 8.16008 6.71525 8.09756 6.77776C8.03505 6.84027 7.99993 6.92506 7.99993 7.01346V9.01346C7.99993 9.10187 8.03505 9.18665 8.09756 9.24916C8.16008 9.31168 8.24486 9.3468 8.33327 9.3468H11.6666" fill="#AAAAAA"/>
</svg>
