<svg width="14" height="14" viewBox="0 0 14 14" fill="none" xmlns="http://www.w3.org/2000/svg">
<path d="M7.00007 12.2499C6.9233 12.2503 6.84719 12.2356 6.77612 12.2066C6.70505 12.1776 6.64041 12.1348 6.5859 12.0807L2.0534 7.54239C1.48486 6.96791 1.16595 6.1923 1.16595 5.38405C1.16595 4.57581 1.48486 3.8002 2.0534 3.22572C2.62639 2.65435 3.40255 2.3335 4.21173 2.3335C5.02092 2.3335 5.79708 2.65435 6.37007 3.22572L7.00007 3.85572L7.63007 3.22572C8.20305 2.65435 8.97922 2.3335 9.7884 2.3335C10.5976 2.3335 11.3737 2.65435 11.9467 3.22572C12.5153 3.8002 12.8342 4.57581 12.8342 5.38405C12.8342 6.1923 12.5153 6.96791 11.9467 7.54239L7.41423 12.0807C7.35973 12.1348 7.29508 12.1776 7.22401 12.2066C7.15294 12.2356 7.07684 12.2503 7.00007 12.2499Z" fill="#F25822"/>
</svg>
