<svg width="16" height="16" viewBox="0 0 16 16" fill="none" xmlns="http://www.w3.org/2000/svg">
<path d="M5.38673 13.3335C6.37252 13.3665 7.35493 13.2015 8.27589 12.8484C9.19684 12.4952 10.0377 11.961 10.7487 11.2774C11.4597 10.5938 12.0264 9.77452 12.4154 8.86811C12.8044 7.96171 13.0077 6.98652 13.0134 6.00019C13.4652 5.44113 13.8006 4.79741 14.0001 4.10686C14.0149 4.0523 14.0137 3.9946 13.9966 3.94071C13.9795 3.88682 13.9471 3.83903 13.9034 3.8031C13.8597 3.76718 13.8066 3.74464 13.7504 3.73821C13.6942 3.73178 13.6374 3.74173 13.5867 3.76686C13.3504 3.88063 13.0843 3.91738 12.826 3.87193C12.5676 3.82648 12.3301 3.70113 12.1467 3.51353C11.9127 3.25724 11.6296 3.05055 11.3142 2.90568C10.9988 2.76081 10.6576 2.68072 10.3107 2.67015C9.96379 2.65958 9.6183 2.71875 9.29469 2.84415C8.97107 2.96955 8.67592 3.15863 8.42673 3.40019C8.08552 3.73063 7.83561 4.14372 7.70127 4.59931C7.56693 5.0549 7.55273 5.53749 7.66006 6.00019C5.42672 6.13353 3.89339 5.07353 2.66672 3.62019C2.62987 3.57846 2.58167 3.54836 2.52799 3.53357C2.47432 3.51878 2.4175 3.51994 2.36447 3.53691C2.31145 3.55388 2.26451 3.58592 2.2294 3.62912C2.19428 3.67233 2.1725 3.72482 2.16672 3.78019C1.93304 5.07647 2.10161 6.41322 2.6498 7.61091C3.198 8.80859 4.09955 9.80984 5.23339 10.4802C4.47315 11.3521 3.40553 11.8966 2.25339 12.0002C2.19167 12.0104 2.13469 12.0397 2.09043 12.0839C2.04617 12.1282 2.01684 12.1851 2.00655 12.2468C1.99627 12.3085 2.00554 12.3719 2.03306 12.4281C2.06059 12.4843 2.10499 12.5305 2.16006 12.5602C3.16241 13.0611 4.26621 13.3257 5.38673 13.3335Z" fill="#AAAAAA"/>
</svg>
